<mxfile host="app.diagrams.net" modified="2023-11-25T16:11:08.145Z" agent="Mozilla/5.0 (Macintosh; Intel Mac OS X 10_15_7) AppleWebKit/537.36 (KHTML, like Gecko) Chrome/119.0.0.0 Safari/537.36" etag="dEZlhFWBbnlweqesBx1j" version="22.1.4" type="github">
  <diagram name="Seite-1" id="maiuEfRSI5jtlyw9wFW1">
    <mxGraphModel dx="3098" dy="1167" grid="1" gridSize="10" guides="1" tooltips="1" connect="1" arrows="1" fold="1" page="1" pageScale="1" pageWidth="827" pageHeight="1169" math="0" shadow="0">
      <root>
        <mxCell id="0" />
        <mxCell id="1" parent="0" />
        <mxCell id="jPx4Ep0A8AZzdhjCGJ2x-31" value="" style="whiteSpace=wrap;html=1;glass=0;fillColor=none;" vertex="1" parent="1">
          <mxGeometry x="-90" y="268" width="1220" height="901" as="geometry" />
        </mxCell>
        <mxCell id="jPx4Ep0A8AZzdhjCGJ2x-22" value="Middleware Subnet" style="sketch=0;outlineConnect=0;gradientColor=none;html=1;whiteSpace=wrap;fontSize=12;fontStyle=0;shape=mxgraph.aws4.group;grIcon=mxgraph.aws4.group_subnet;strokeColor=#879196;fillColor=none;verticalAlign=top;align=left;spacingLeft=30;fontColor=#879196;dashed=0;" vertex="1" parent="1">
          <mxGeometry x="639" y="691" width="330" height="226" as="geometry" />
        </mxCell>
        <mxCell id="jPx4Ep0A8AZzdhjCGJ2x-11" value="Middleware Subnet" style="sketch=0;outlineConnect=0;gradientColor=none;html=1;whiteSpace=wrap;fontSize=12;fontStyle=0;shape=mxgraph.aws4.group;grIcon=mxgraph.aws4.group_subnet;strokeColor=#879196;fillColor=none;verticalAlign=top;align=left;spacingLeft=30;fontColor=#879196;dashed=0;" vertex="1" parent="1">
          <mxGeometry x="639" y="411" width="330" height="226" as="geometry" />
        </mxCell>
        <mxCell id="jPx4Ep0A8AZzdhjCGJ2x-1" value="" style="image;aspect=fixed;perimeter=ellipsePerimeter;html=1;align=center;shadow=0;dashed=0;spacingTop=3;image=img/lib/active_directory/internet_cloud.svg;" vertex="1" parent="1">
          <mxGeometry x="-340" y="509.5" width="50" height="31.5" as="geometry" />
        </mxCell>
        <mxCell id="jPx4Ep0A8AZzdhjCGJ2x-54" style="edgeStyle=orthogonalEdgeStyle;rounded=0;orthogonalLoop=1;jettySize=auto;html=1;" edge="1" parent="1" source="jPx4Ep0A8AZzdhjCGJ2x-2" target="jPx4Ep0A8AZzdhjCGJ2x-49">
          <mxGeometry relative="1" as="geometry" />
        </mxCell>
        <mxCell id="jPx4Ep0A8AZzdhjCGJ2x-2" value="External&lt;br&gt;Load&lt;br&gt;Balancer" style="verticalLabelPosition=bottom;html=1;verticalAlign=top;align=center;strokeColor=none;fillColor=#00BEF2;shape=mxgraph.azure.azure_load_balancer;" vertex="1" parent="1">
          <mxGeometry x="-180" y="506" width="50" height="35" as="geometry" />
        </mxCell>
        <mxCell id="jPx4Ep0A8AZzdhjCGJ2x-3" style="edgeStyle=orthogonalEdgeStyle;rounded=0;orthogonalLoop=1;jettySize=auto;html=1;entryX=0.05;entryY=0.5;entryDx=0;entryDy=0;entryPerimeter=0;" edge="1" parent="1" source="jPx4Ep0A8AZzdhjCGJ2x-1" target="jPx4Ep0A8AZzdhjCGJ2x-2">
          <mxGeometry relative="1" as="geometry" />
        </mxCell>
        <mxCell id="jPx4Ep0A8AZzdhjCGJ2x-5" value="Public IP" style="edgeLabel;html=1;align=center;verticalAlign=middle;resizable=0;points=[];" vertex="1" connectable="0" parent="jPx4Ep0A8AZzdhjCGJ2x-3">
          <mxGeometry x="0.6961" y="-2" relative="1" as="geometry">
            <mxPoint x="-35" y="-2" as="offset" />
          </mxGeometry>
        </mxCell>
        <mxCell id="jPx4Ep0A8AZzdhjCGJ2x-8" value="Virtual Network" style="image;aspect=fixed;html=1;points=[];align=center;fontSize=12;image=img/lib/azure2/networking/Virtual_Networks.svg;" vertex="1" parent="1">
          <mxGeometry x="-50" y="1106" width="67" height="40" as="geometry" />
        </mxCell>
        <mxCell id="jPx4Ep0A8AZzdhjCGJ2x-25" style="edgeStyle=orthogonalEdgeStyle;rounded=0;orthogonalLoop=1;jettySize=auto;html=1;" edge="1" parent="1" source="jPx4Ep0A8AZzdhjCGJ2x-10" target="jPx4Ep0A8AZzdhjCGJ2x-19">
          <mxGeometry relative="1" as="geometry" />
        </mxCell>
        <mxCell id="jPx4Ep0A8AZzdhjCGJ2x-10" value="Middleware&lt;br&gt;Availability&lt;br&gt;Set(3x)" style="image;aspect=fixed;html=1;points=[];align=center;fontSize=12;image=img/lib/azure2/compute/Availability_Sets.svg;" vertex="1" parent="1">
          <mxGeometry x="853" y="490" width="68" height="68" as="geometry" />
        </mxCell>
        <mxCell id="jPx4Ep0A8AZzdhjCGJ2x-15" style="edgeStyle=orthogonalEdgeStyle;rounded=0;orthogonalLoop=1;jettySize=auto;html=1;" edge="1" parent="1" source="jPx4Ep0A8AZzdhjCGJ2x-12" target="jPx4Ep0A8AZzdhjCGJ2x-10">
          <mxGeometry relative="1" as="geometry" />
        </mxCell>
        <mxCell id="jPx4Ep0A8AZzdhjCGJ2x-12" value="Internal&lt;br&gt;Load&lt;br&gt;Balancer" style="verticalLabelPosition=bottom;html=1;verticalAlign=top;align=center;strokeColor=none;fillColor=#00BEF2;shape=mxgraph.azure.azure_load_balancer;" vertex="1" parent="1">
          <mxGeometry x="736" y="506.5" width="50" height="35" as="geometry" />
        </mxCell>
        <mxCell id="jPx4Ep0A8AZzdhjCGJ2x-21" style="edgeStyle=orthogonalEdgeStyle;rounded=0;orthogonalLoop=1;jettySize=auto;html=1;" edge="1" parent="1" source="jPx4Ep0A8AZzdhjCGJ2x-19" target="jPx4Ep0A8AZzdhjCGJ2x-20">
          <mxGeometry relative="1" as="geometry" />
        </mxCell>
        <mxCell id="jPx4Ep0A8AZzdhjCGJ2x-19" value="Backend / DB&lt;br&gt;Availability&lt;br&gt;Set(3x)" style="image;aspect=fixed;html=1;points=[];align=center;fontSize=12;image=img/lib/azure2/compute/Availability_Sets.svg;" vertex="1" parent="1">
          <mxGeometry x="853" y="770" width="68" height="68" as="geometry" />
        </mxCell>
        <mxCell id="jPx4Ep0A8AZzdhjCGJ2x-20" value="DB&lt;br&gt;Replica" style="image;aspect=fixed;html=1;points=[];align=center;fontSize=12;image=img/lib/azure2/compute/Virtual_Machine.svg;" vertex="1" parent="1">
          <mxGeometry x="726.5" y="772" width="69" height="64" as="geometry" />
        </mxCell>
        <mxCell id="jPx4Ep0A8AZzdhjCGJ2x-29" value="NSG" style="html=1;verticalLabelPosition=bottom;align=center;labelBackgroundColor=#ffffff;verticalAlign=top;strokeWidth=2;strokeColor=#0080F0;shadow=0;dashed=0;shape=mxgraph.ios7.icons.locked;" vertex="1" parent="1">
          <mxGeometry x="921" y="700" width="24" height="30" as="geometry" />
        </mxCell>
        <mxCell id="jPx4Ep0A8AZzdhjCGJ2x-30" value="Azure Key&lt;br&gt;Vault" style="image;aspect=fixed;html=1;points=[];align=center;fontSize=12;image=img/lib/azure2/security/Keys.svg;" vertex="1" parent="1">
          <mxGeometry x="670" y="1030" width="72" height="76" as="geometry" />
        </mxCell>
        <mxCell id="jPx4Ep0A8AZzdhjCGJ2x-32" style="edgeStyle=orthogonalEdgeStyle;rounded=0;orthogonalLoop=1;jettySize=auto;html=1;entryX=-0.007;entryY=0.469;entryDx=0;entryDy=0;entryPerimeter=0;" edge="1" parent="1" source="jPx4Ep0A8AZzdhjCGJ2x-30" target="jPx4Ep0A8AZzdhjCGJ2x-20">
          <mxGeometry relative="1" as="geometry" />
        </mxCell>
        <mxCell id="jPx4Ep0A8AZzdhjCGJ2x-33" value="Encryption&lt;br&gt;at Rest" style="edgeLabel;html=1;align=center;verticalAlign=middle;resizable=0;points=[];" vertex="1" connectable="0" parent="jPx4Ep0A8AZzdhjCGJ2x-32">
          <mxGeometry x="-0.2742" y="2" relative="1" as="geometry">
            <mxPoint as="offset" />
          </mxGeometry>
        </mxCell>
        <mxCell id="jPx4Ep0A8AZzdhjCGJ2x-41" value="Frontend Subnet" style="sketch=0;outlineConnect=0;gradientColor=none;html=1;whiteSpace=wrap;fontSize=12;fontStyle=0;shape=mxgraph.aws4.group;grIcon=mxgraph.aws4.group_subnet;strokeColor=#879196;fillColor=none;verticalAlign=top;align=left;spacingLeft=30;fontColor=#879196;dashed=0;" vertex="1" parent="1">
          <mxGeometry x="245" y="411" width="330" height="226" as="geometry" />
        </mxCell>
        <mxCell id="jPx4Ep0A8AZzdhjCGJ2x-42" value="&lt;div&gt;Frontend&lt;/div&gt;&lt;div&gt;Availability&lt;/div&gt;&lt;div&gt;Set(3x)&lt;/div&gt;" style="image;aspect=fixed;html=1;points=[];align=center;fontSize=12;image=img/lib/azure2/compute/Availability_Sets.svg;" vertex="1" parent="1">
          <mxGeometry x="459" y="490" width="68" height="68" as="geometry" />
        </mxCell>
        <mxCell id="jPx4Ep0A8AZzdhjCGJ2x-43" style="edgeStyle=orthogonalEdgeStyle;rounded=0;orthogonalLoop=1;jettySize=auto;html=1;" edge="1" parent="1" source="jPx4Ep0A8AZzdhjCGJ2x-44" target="jPx4Ep0A8AZzdhjCGJ2x-42">
          <mxGeometry relative="1" as="geometry" />
        </mxCell>
        <mxCell id="jPx4Ep0A8AZzdhjCGJ2x-44" value="Internal&lt;br&gt;Load&lt;br&gt;Balancer" style="verticalLabelPosition=bottom;html=1;verticalAlign=top;align=center;strokeColor=none;fillColor=#00BEF2;shape=mxgraph.azure.azure_load_balancer;" vertex="1" parent="1">
          <mxGeometry x="342" y="506.5" width="50" height="35" as="geometry" />
        </mxCell>
        <mxCell id="jPx4Ep0A8AZzdhjCGJ2x-46" style="edgeStyle=orthogonalEdgeStyle;rounded=0;orthogonalLoop=1;jettySize=auto;html=1;entryX=0.05;entryY=0.5;entryDx=0;entryDy=0;entryPerimeter=0;" edge="1" parent="1" source="jPx4Ep0A8AZzdhjCGJ2x-42" target="jPx4Ep0A8AZzdhjCGJ2x-12">
          <mxGeometry relative="1" as="geometry" />
        </mxCell>
        <mxCell id="jPx4Ep0A8AZzdhjCGJ2x-47" value="Private IP" style="edgeLabel;html=1;align=center;verticalAlign=middle;resizable=0;points=[];" vertex="1" connectable="0" parent="jPx4Ep0A8AZzdhjCGJ2x-46">
          <mxGeometry x="0.5982" y="-1" relative="1" as="geometry">
            <mxPoint as="offset" />
          </mxGeometry>
        </mxCell>
        <mxCell id="jPx4Ep0A8AZzdhjCGJ2x-48" value="DMZ Subnet" style="sketch=0;outlineConnect=0;gradientColor=none;html=1;whiteSpace=wrap;fontSize=12;fontStyle=0;shape=mxgraph.aws4.group;grIcon=mxgraph.aws4.group_subnet;strokeColor=#879196;fillColor=none;verticalAlign=top;align=left;spacingLeft=30;fontColor=#879196;dashed=0;" vertex="1" parent="1">
          <mxGeometry x="1.5" y="410" width="187" height="227" as="geometry" />
        </mxCell>
        <mxCell id="jPx4Ep0A8AZzdhjCGJ2x-49" value="&lt;div&gt;NVA&lt;/div&gt;&lt;div&gt;Availability&lt;/div&gt;&lt;div&gt;Set(3x)&lt;/div&gt;" style="image;aspect=fixed;html=1;points=[];align=center;fontSize=12;image=img/lib/azure2/compute/Availability_Sets.svg;" vertex="1" parent="1">
          <mxGeometry x="61" y="490" width="68" height="68" as="geometry" />
        </mxCell>
        <mxCell id="jPx4Ep0A8AZzdhjCGJ2x-52" style="edgeStyle=orthogonalEdgeStyle;rounded=0;orthogonalLoop=1;jettySize=auto;html=1;entryX=0.05;entryY=0.5;entryDx=0;entryDy=0;entryPerimeter=0;" edge="1" parent="1" source="jPx4Ep0A8AZzdhjCGJ2x-49" target="jPx4Ep0A8AZzdhjCGJ2x-44">
          <mxGeometry relative="1" as="geometry" />
        </mxCell>
        <mxCell id="jPx4Ep0A8AZzdhjCGJ2x-53" value="Private IP" style="edgeLabel;html=1;align=center;verticalAlign=middle;resizable=0;points=[];" vertex="1" connectable="0" parent="jPx4Ep0A8AZzdhjCGJ2x-52">
          <mxGeometry x="0.7287" y="-1" relative="1" as="geometry">
            <mxPoint x="-30" y="-1" as="offset" />
          </mxGeometry>
        </mxCell>
        <mxCell id="jPx4Ep0A8AZzdhjCGJ2x-55" value="NSG" style="html=1;verticalLabelPosition=bottom;align=center;labelBackgroundColor=#ffffff;verticalAlign=top;strokeWidth=2;strokeColor=#0080F0;shadow=0;dashed=0;shape=mxgraph.ios7.icons.locked;" vertex="1" parent="1">
          <mxGeometry x="660" y="585" width="24" height="30" as="geometry" />
        </mxCell>
        <mxCell id="jPx4Ep0A8AZzdhjCGJ2x-56" value="NSG" style="html=1;verticalLabelPosition=bottom;align=center;labelBackgroundColor=#ffffff;verticalAlign=top;strokeWidth=2;strokeColor=#0080F0;shadow=0;dashed=0;shape=mxgraph.ios7.icons.locked;" vertex="1" parent="1">
          <mxGeometry x="260" y="580" width="24" height="30" as="geometry" />
        </mxCell>
        <mxCell id="jPx4Ep0A8AZzdhjCGJ2x-57" value="Bastion Subnet" style="sketch=0;outlineConnect=0;gradientColor=none;html=1;whiteSpace=wrap;fontSize=12;fontStyle=0;shape=mxgraph.aws4.group;grIcon=mxgraph.aws4.group_subnet;strokeColor=#879196;fillColor=none;verticalAlign=top;align=left;spacingLeft=30;fontColor=#879196;dashed=0;" vertex="1" parent="1">
          <mxGeometry y="691" width="187" height="227" as="geometry" />
        </mxCell>
        <mxCell id="jPx4Ep0A8AZzdhjCGJ2x-60" value="Bastion" style="image;aspect=fixed;html=1;points=[];align=center;fontSize=12;image=img/lib/azure2/compute/Virtual_Machine.svg;" vertex="1" parent="1">
          <mxGeometry x="59" y="772.5" width="69" height="64" as="geometry" />
        </mxCell>
        <mxCell id="jPx4Ep0A8AZzdhjCGJ2x-62" style="edgeStyle=orthogonalEdgeStyle;rounded=0;orthogonalLoop=1;jettySize=auto;html=1;" edge="1" parent="1" source="jPx4Ep0A8AZzdhjCGJ2x-61" target="jPx4Ep0A8AZzdhjCGJ2x-60">
          <mxGeometry relative="1" as="geometry" />
        </mxCell>
        <mxCell id="jPx4Ep0A8AZzdhjCGJ2x-63" value="Only SSH from approved IPs" style="edgeLabel;html=1;align=center;verticalAlign=middle;resizable=0;points=[];" vertex="1" connectable="0" parent="jPx4Ep0A8AZzdhjCGJ2x-62">
          <mxGeometry x="0.1753" y="1" relative="1" as="geometry">
            <mxPoint x="1" y="1" as="offset" />
          </mxGeometry>
        </mxCell>
        <mxCell id="jPx4Ep0A8AZzdhjCGJ2x-61" value="Cloud Admin" style="shape=umlActor;verticalLabelPosition=bottom;verticalAlign=top;html=1;outlineConnect=0;" vertex="1" parent="1">
          <mxGeometry x="-230" y="774" width="30" height="60" as="geometry" />
        </mxCell>
        <mxCell id="jPx4Ep0A8AZzdhjCGJ2x-64" value="NSG" style="html=1;verticalLabelPosition=bottom;align=center;labelBackgroundColor=#ffffff;verticalAlign=top;strokeWidth=2;strokeColor=#0080F0;shadow=0;dashed=0;shape=mxgraph.ios7.icons.locked;" vertex="1" parent="1">
          <mxGeometry x="10" y="860" width="24" height="30" as="geometry" />
        </mxCell>
      </root>
    </mxGraphModel>
  </diagram>
</mxfile>
